<svg width="1204" height="60" viewBox="0 0 1204 60" fill="none" xmlns="http://www.w3.org/2000/svg">
<path d="M20.2929 29.2929C19.9024 29.6834 19.9024 30.3166 20.2929 30.7071L26.6569 37.0711C27.0474 37.4616 27.6805 37.4616 28.0711 37.0711C28.4616 36.6805 28.4616 36.0474 28.0711 35.6569L22.4142 30L28.0711 24.3431C28.4616 23.9526 28.4616 23.3195 28.0711 22.9289C27.6805 22.5384 27.0474 22.5384 26.6569 22.9289L20.2929 29.2929ZM21 31H39V29H21V31Z" fill="#444444"/>
<path d="M1183.71 30.7071C1184.1 30.3166 1184.1 29.6834 1183.71 29.2929L1177.34 22.9289C1176.95 22.5384 1176.32 22.5384 1175.93 22.9289C1175.54 23.3195 1175.54 23.9526 1175.93 24.3431L1181.59 30L1175.93 35.6569C1175.54 36.0474 1175.54 36.6805 1175.93 37.0711C1176.32 37.4616 1176.95 37.4616 1177.34 37.0711L1183.71 30.7071ZM1165 31H1183V29H1165V31Z" fill="#444444"/>
</svg>
