<svg width="127" height="90" viewBox="0 0 127 90" fill="none" xmlns="http://www.w3.org/2000/svg">
<g clip-path="url(#clip0_17_138126)">
<path fill-rule="evenodd" clip-rule="evenodd" d="M30 26.4326V2.01184C30 0.193032 27.7691 -0.68162 26.5329 0.65255L0.532916 28.7144C0.190333 29.0842 0 29.5697 0 30.0737V88.0004C0 89.105 0.895432 90.0004 2 90.0004H58C59.1046 90.0004 60 89.105 60 88.0004V31.2896C60 30.185 59.1046 29.2896 58 29.2896L32 29.2896C30.8954 29.2896 30 28.3942 30 27.2896V26.4326Z" fill="#D9D9D9"/>
<path fill-rule="evenodd" clip-rule="evenodd" d="M97 26.4326V2.01184C97 0.193032 94.7691 -0.68162 93.5329 0.65255L67.5329 28.7144C67.1903 29.0842 67 29.5697 67 30.0737V88.0004C67 89.105 67.8954 90.0004 69 90.0004H125C126.105 90.0004 127 89.105 127 88.0004V31.2896C127 30.185 126.105 29.2896 125 29.2896L99 29.2896C97.8954 29.2896 97 28.3942 97 27.2896V26.4326Z" fill="#D9D9D9"/>
</g>
<defs>
<clipPath id="clip0_17_138126">
<rect width="127" height="89.9931" fill="white" transform="translate(0 0.0078125)"/>
</clipPath>
</defs>
</svg>
