<svg width="127" height="120" viewBox="0 0 127 120" fill="none" xmlns="http://www.w3.org/2000/svg">
<g clip-path="url(#clip0_17_138128)">
<path fill-rule="evenodd" clip-rule="evenodd" d="M97 93.5674L97 117.988C97 119.807 99.2309 120.682 100.467 119.347L126.467 91.2856C126.81 90.9158 127 90.4303 127 89.9263L127 31.9996C127 30.895 126.105 29.9996 125 29.9996L69 29.9996C67.8954 29.9996 67 30.895 67 31.9996L67 88.7104C67 89.815 67.8954 90.7104 69 90.7104L95 90.7104C96.1046 90.7104 97 91.6058 97 92.7104L97 93.5674Z" fill="#D9D9D9"/>
<path fill-rule="evenodd" clip-rule="evenodd" d="M30 93.5674L30 117.988C30 119.807 32.2309 120.682 33.4671 119.347L59.4671 91.2856C59.8097 90.9158 60 90.4303 60 89.9263L60 31.9996C60 30.895 59.1046 29.9996 58 29.9996L1.99999 29.9996C0.895424 29.9996 -7.78912e-06 30.895 -7.69256e-06 31.9996L-2.73474e-06 88.7104C-2.63818e-06 89.815 0.895429 90.7104 2 90.7104L28 90.7104C29.1046 90.7104 30 91.6058 30 92.7104L30 93.5674Z" fill="#D9D9D9"/>
</g>
<defs>
<clipPath id="clip0_17_138128">
<rect width="127" height="119.985" fill="white" transform="translate(0 0.0078125)"/>
</clipPath>
</defs>
</svg>
