<svg width="790" height="596" viewBox="0 0 790 596" fill="none" xmlns="http://www.w3.org/2000/svg">
<path d="M785 395.008H765" stroke="#888888" stroke-width="10" stroke-miterlimit="10" stroke-linecap="round"/>
<path d="M25 395.008H5" stroke="#888888" stroke-width="10" stroke-miterlimit="10" stroke-linecap="round"/>
<path d="M782.861 354.238L762.971 356.338" stroke="#888888" stroke-width="10" stroke-miterlimit="10" stroke-linecap="round"/>
<path d="M27.0306 433.688L7.14062 435.777" stroke="#888888" stroke-width="10" stroke-miterlimit="10" stroke-linecap="round"/>
<path d="M776.48 313.93L756.91 318.08" stroke="#888888" stroke-width="10" stroke-miterlimit="10" stroke-linecap="round"/>
<path d="M33.0895 471.938L13.5195 476.098" stroke="#888888" stroke-width="10" stroke-miterlimit="10" stroke-linecap="round"/>
<path d="M765.911 274.488L746.891 280.668" stroke="#888888" stroke-width="10" stroke-miterlimit="10" stroke-linecap="round"/>
<path d="M43.1098 509.348L24.0898 515.528" stroke="#888888" stroke-width="10" stroke-miterlimit="10" stroke-linecap="round"/>
<path d="M751.28 236.379L733.01 244.519" stroke="#888888" stroke-width="10" stroke-miterlimit="10" stroke-linecap="round"/>
<path d="M56.9907 545.496L38.7207 553.636" stroke="#888888" stroke-width="10" stroke-miterlimit="10" stroke-linecap="round"/>
<path d="M732.75 200.008L715.43 210.008" stroke="#888888" stroke-width="10" stroke-miterlimit="10" stroke-linecap="round"/>
<path d="M74.57 580.008L57.25 590.008" stroke="#888888" stroke-width="10" stroke-miterlimit="10" stroke-linecap="round"/>
<path d="M710.52 165.77L694.34 177.53" stroke="#888888" stroke-width="10" stroke-miterlimit="10" stroke-linecap="round"/>
<path d="M684.831 134.047L669.961 147.427" stroke="#888888" stroke-width="10" stroke-miterlimit="10" stroke-linecap="round"/>
<path d="M655.96 105.18L642.58 120.05" stroke="#888888" stroke-width="10" stroke-miterlimit="10" stroke-linecap="round"/>
<path d="M624.24 79.4883L612.48 95.6683" stroke="#888888" stroke-width="10" stroke-miterlimit="10" stroke-linecap="round"/>
<path d="M590 57.2578L580 74.5778" stroke="#888888" stroke-width="10" stroke-miterlimit="10" stroke-linecap="round"/>
<path d="M553.63 38.7266L545.49 56.9966" stroke="#888888" stroke-width="10" stroke-miterlimit="10" stroke-linecap="round"/>
<path d="M515.52 24.0977L509.34 43.1177" stroke="#888888" stroke-width="10" stroke-miterlimit="10" stroke-linecap="round"/>
<path d="M476.09 13.5273L471.93 33.0973" stroke="#888888" stroke-width="10" stroke-miterlimit="10" stroke-linecap="round"/>
<path d="M435.77 7.14844L433.68 27.0384" stroke="#888888" stroke-width="10" stroke-miterlimit="10" stroke-linecap="round"/>
<path d="M395 5.00781V25.0078" stroke="#888888" stroke-width="10" stroke-miterlimit="10" stroke-linecap="round"/>
<path d="M354.23 7.14844L356.32 27.0384" stroke="#888888" stroke-width="10" stroke-miterlimit="10" stroke-linecap="round"/>
<path d="M313.91 13.5273L318.07 33.0973" stroke="#888888" stroke-width="10" stroke-miterlimit="10" stroke-linecap="round"/>
<path d="M274.48 24.0977L280.66 43.1177" stroke="#888888" stroke-width="10" stroke-miterlimit="10" stroke-linecap="round"/>
<path d="M236.369 38.7266L244.509 56.9966" stroke="#888888" stroke-width="10" stroke-miterlimit="10" stroke-linecap="round"/>
<path d="M200 57.2578L210 74.5778" stroke="#888888" stroke-width="10" stroke-miterlimit="10" stroke-linecap="round"/>
<path d="M165.76 79.4883L177.52 95.6683" stroke="#888888" stroke-width="10" stroke-miterlimit="10" stroke-linecap="round"/>
<path d="M134.039 105.18L147.419 120.05" stroke="#888888" stroke-width="10" stroke-miterlimit="10" stroke-linecap="round"/>
<path d="M105.17 134.047L120.04 147.427" stroke="#888888" stroke-width="10" stroke-miterlimit="10" stroke-linecap="round"/>
<path d="M79.4805 165.77L95.6605 177.53" stroke="#888888" stroke-width="10" stroke-miterlimit="10" stroke-linecap="round"/>
<path d="M57.25 200.008L74.57 210.008" stroke="#888888" stroke-width="10" stroke-miterlimit="10" stroke-linecap="round"/>
<path d="M715.43 580.008L732.75 590.008" stroke="#888888" stroke-width="10" stroke-miterlimit="10" stroke-linecap="round"/>
<path d="M38.7207 236.379L56.9907 244.519" stroke="#888888" stroke-width="10" stroke-miterlimit="10" stroke-linecap="round"/>
<path d="M733.01 545.496L751.28 553.636" stroke="#888888" stroke-width="10" stroke-miterlimit="10" stroke-linecap="round"/>
<path d="M24.0898 274.488L43.1098 280.668" stroke="#888888" stroke-width="10" stroke-miterlimit="10" stroke-linecap="round"/>
<path d="M746.891 509.348L765.911 515.528" stroke="#888888" stroke-width="10" stroke-miterlimit="10" stroke-linecap="round"/>
<path d="M13.5195 313.93L33.0895 318.08" stroke="#888888" stroke-width="10" stroke-miterlimit="10" stroke-linecap="round"/>
<path d="M756.91 471.938L776.48 476.098" stroke="#888888" stroke-width="10" stroke-miterlimit="10" stroke-linecap="round"/>
<path d="M7.14062 354.238L27.0306 356.338" stroke="#888888" stroke-width="10" stroke-miterlimit="10" stroke-linecap="round"/>
<path d="M762.971 433.688L782.861 435.777" stroke="#888888" stroke-width="10" stroke-miterlimit="10" stroke-linecap="round"/>
</svg>
