<svg width="790" height="596" viewBox="0 0 790 596" fill="none" xmlns="http://www.w3.org/2000/svg">
<mask id="mask0_17_38641" style="mask-type:alpha" maskUnits="userSpaceOnUse" x="0" y="0" width="790" height="596">
<path fill-rule="evenodd" clip-rule="evenodd" d="M395 0.0078125C397.761 0.0078125 400 2.24639 400 5.00781V25.0078C400 27.7692 397.761 30.0078 395 30.0078C392.239 30.0078 390 27.7692 390 25.0078V5.00781C390 2.24639 392.239 0.0078125 395 0.0078125ZM440.743 7.67038C441.031 4.92407 439.039 2.46382 436.293 2.17524C433.546 1.88667 431.086 3.87905 430.797 6.62535L428.707 26.5154C428.419 29.2617 430.411 31.7219 433.158 32.0105C435.904 32.2991 438.364 30.3067 438.653 27.5604L440.743 7.67038ZM477.13 8.63667C479.831 9.21084 481.556 11.8659 480.981 14.567L476.821 34.137C476.247 36.8381 473.592 38.5623 470.891 37.9881C468.19 37.4139 466.466 34.7588 467.04 32.0578L471.2 12.4878C471.774 9.7867 474.429 8.0625 477.13 8.63667ZM520.275 25.6431C521.128 23.0168 519.691 20.1961 517.064 19.3427C514.438 18.4894 511.617 19.9267 510.764 22.5529L504.584 41.5729C503.731 44.1992 505.168 47.02 507.794 47.8733C510.42 48.7266 513.241 47.2894 514.095 44.6631L520.275 25.6431ZM555.664 34.1606C558.187 35.2844 559.321 38.2403 558.197 40.7627L550.057 59.0327C548.933 61.5551 545.977 62.6888 543.455 61.565C540.932 60.4412 539.799 57.4853 540.922 54.9629L549.062 36.6929C550.186 34.1705 553.142 33.0368 555.664 34.1606ZM594.331 59.7577C595.712 57.3663 594.892 54.3083 592.501 52.9276C590.109 51.5468 587.051 52.3662 585.671 54.7576L575.671 72.0776C574.29 74.4691 575.109 77.527 577.501 78.9078C579.892 80.2885 582.95 79.4692 584.331 77.0777L594.331 59.7577ZM627.18 75.4431C629.414 77.0667 629.909 80.1936 628.285 82.4273L616.525 98.6073C614.902 100.841 611.775 101.336 609.541 99.7122C607.307 98.0887 606.813 94.9617 608.436 92.728L620.196 76.548C621.82 74.3142 624.947 73.8196 627.18 75.4431ZM659.677 108.522C661.524 106.469 661.357 103.308 659.305 101.461C657.252 99.6139 654.09 99.7806 652.243 101.833L638.863 116.703C637.016 118.756 637.183 121.918 639.236 123.765C641.288 125.612 644.45 125.445 646.297 123.392L659.677 108.522ZM688.548 130.703C690.395 132.756 690.228 135.918 688.175 137.765L673.305 151.145C671.253 152.992 668.091 152.825 666.244 150.772C664.397 148.72 664.564 145.558 666.617 143.711L681.487 130.331C683.539 128.484 686.701 128.651 688.548 130.703ZM713.46 169.812C715.694 168.189 716.188 165.062 714.565 162.828C712.941 160.595 709.814 160.1 707.581 161.723L691.401 173.483C689.167 175.107 688.672 178.234 690.296 180.468C691.919 182.701 695.046 183.196 697.28 181.572L713.46 169.812ZM735.251 204.338C737.642 202.957 738.461 199.899 737.081 197.508C735.7 195.116 732.642 194.297 730.25 195.678L712.93 205.678C710.539 207.058 709.72 210.116 711.1 212.508C712.481 214.899 715.539 215.719 717.931 214.338L735.251 204.338ZM753.314 240.945C755.836 239.822 756.97 236.866 755.846 234.343C754.722 231.821 751.767 230.687 749.244 231.811L730.974 239.951C728.452 241.075 727.318 244.031 728.442 246.553C729.566 249.075 732.522 250.209 735.044 249.085L753.314 240.945ZM767.455 279.243C770.081 278.39 771.519 275.569 770.665 272.943C769.812 270.316 766.991 268.879 764.365 269.732L745.345 275.912C742.719 276.766 741.281 279.587 742.135 282.213C742.988 284.839 745.809 286.276 748.435 285.423L767.455 279.243ZM777.516 318.819C780.218 318.246 781.943 315.592 781.37 312.891C780.798 310.189 778.143 308.464 775.442 309.037L755.872 313.187C753.171 313.759 751.445 316.414 752.018 319.115C752.591 321.816 755.245 323.542 757.946 322.969L777.516 318.819ZM783.384 359.21C786.13 358.92 788.121 356.459 787.832 353.713C787.542 350.967 785.08 348.975 782.334 349.265L762.444 351.365C759.698 351.655 757.707 354.117 757.997 356.863C758.287 359.609 760.748 361.6 763.494 361.31L783.384 359.21ZM0 395.008C0 392.246 2.23858 390.008 5 390.008H25C27.7614 390.008 30 392.246 30 395.008C30 397.769 27.7614 400.008 25 400.008H5C2.23858 400.008 0 397.769 0 395.008ZM760 395.008C760 392.246 762.239 390.008 765 390.008H785C787.761 390.008 790 392.246 790 395.008C790 397.769 787.761 400.008 785 400.008H765C762.239 400.008 760 397.769 760 395.008ZM32.0017 433.165C32.2903 435.912 30.2979 438.372 27.5516 438.661L7.66159 440.751C4.91528 441.039 2.45503 439.047 2.16645 436.3C1.87788 433.554 3.87026 431.094 6.61656 430.805L26.5066 428.715C29.2529 428.427 31.7131 430.419 32.0017 433.165ZM37.9813 470.898C38.5555 473.599 36.8313 476.254 34.1302 476.828L14.5602 480.988C11.8591 481.562 9.204 479.838 8.62983 477.137C8.05567 474.436 9.77986 471.781 12.4809 471.207L32.0509 467.047C34.752 466.473 37.4071 468.197 37.9813 470.898ZM47.8645 507.803C48.7179 510.429 47.2806 513.25 44.6543 514.103L25.6343 520.283C23.0081 521.137 20.1873 519.699 19.334 517.073C18.4806 514.447 19.9179 511.626 22.5441 510.773L41.5641 504.593C44.1904 503.739 47.0112 505.177 47.8645 507.803ZM61.5572 543.462C62.681 545.985 61.5473 548.941 59.0249 550.065L40.7549 558.205C38.2325 559.328 35.2766 558.195 34.1528 555.672C33.029 553.15 34.1627 550.194 36.6851 549.07L54.9551 540.93C57.4775 539.806 60.4334 540.94 61.5572 543.462ZM78.9009 577.508C80.2817 579.899 79.4623 582.957 77.0709 584.338L59.7509 594.338C57.3594 595.719 54.3015 594.899 52.9207 592.508C51.54 590.116 52.3593 587.058 54.7508 585.678L72.0708 575.678C74.4622 574.297 77.5202 575.116 78.9009 577.508ZM359.203 6.62535C358.915 3.87905 356.455 1.88667 353.708 2.17524C350.962 2.46382 348.97 4.92407 349.258 7.67038L351.348 27.5604C351.637 30.3067 354.097 32.2991 356.843 32.0105C359.59 31.7219 361.582 29.2617 361.293 26.5154L359.203 6.62535ZM312.87 8.63667C315.571 8.0625 318.226 9.7867 318.8 12.4878L322.96 32.0578C323.534 34.7588 321.81 37.4139 319.109 37.9881C316.408 38.5623 313.753 36.8381 313.178 34.137L309.018 14.567C308.444 11.8659 310.169 9.21084 312.87 8.63667ZM279.235 22.5529C278.382 19.9267 275.561 18.4894 272.935 19.3427C270.309 20.1961 268.871 23.0168 269.725 25.6431L275.905 44.6631C276.758 47.2894 279.579 48.7266 282.205 47.8733C284.831 47.02 286.268 44.1992 285.415 41.5729L279.235 22.5529ZM234.336 34.1606C236.858 33.0368 239.814 34.1705 240.938 36.6929L249.078 54.9629C250.201 57.4853 249.068 60.4412 246.545 61.565C244.023 62.6888 241.067 61.5551 239.943 59.0327L231.803 40.7627C230.679 38.2403 231.813 35.2844 234.336 34.1606ZM204.331 54.7576C202.95 52.3662 199.892 51.5468 197.501 52.9276C195.109 54.3083 194.29 57.3663 195.671 59.7577L205.671 77.0777C207.051 79.4692 210.109 80.2885 212.501 78.9078C214.892 77.527 215.712 74.4691 214.331 72.0776L204.331 54.7576ZM162.82 75.4431C165.054 73.8196 168.181 74.3142 169.805 76.548L181.565 92.728C183.188 94.9617 182.694 98.0887 180.46 99.7122C178.226 101.336 175.099 100.841 173.476 98.6073L161.716 82.4273C160.092 80.1936 160.587 77.0667 162.82 75.4431ZM137.756 101.833C135.909 99.7806 132.747 99.6139 130.695 101.461C128.642 103.308 128.475 106.469 130.322 108.522L143.702 123.392C145.549 125.445 148.711 125.612 150.764 123.765C152.816 121.918 152.983 118.756 151.136 116.703L137.756 101.833ZM101.453 130.703C103.3 128.651 106.462 128.484 108.514 130.331L123.384 143.711C125.437 145.558 125.604 148.72 123.757 150.772C121.91 152.825 118.748 152.992 116.696 151.145L101.826 137.765C99.7728 135.918 99.6061 132.756 101.453 130.703ZM82.4205 161.723C80.1868 160.1 77.0598 160.595 75.4363 162.828C73.8127 165.062 74.3074 168.189 76.5412 169.812L92.7212 181.572C94.9549 183.196 98.0818 182.701 99.7054 180.468C101.329 178.234 100.834 175.107 98.6005 173.483L82.4205 161.723ZM52.9207 197.508C54.3015 195.116 57.3594 194.297 59.7509 195.678L77.0709 205.678C79.4623 207.058 80.2817 210.116 78.9009 212.508C77.5202 214.899 74.4622 215.719 72.0708 214.338L54.7508 204.338C52.3593 202.957 51.54 199.899 52.9207 197.508ZM717.931 575.678C715.539 574.297 712.481 575.116 711.1 577.508C709.72 579.899 710.539 582.957 712.93 584.338L730.25 594.338C732.642 595.719 735.7 594.899 737.081 592.508C738.461 590.116 737.642 587.058 735.251 585.678L717.931 575.678ZM34.1528 234.343C35.2766 231.821 38.2325 230.687 40.7549 231.811L59.0249 239.951C61.5473 241.075 62.681 244.031 61.5572 246.553C60.4334 249.075 57.4775 250.209 54.9551 249.085L36.6851 240.945C34.1627 239.822 33.029 236.866 34.1528 234.343ZM735.044 540.93C732.522 539.806 729.566 540.94 728.442 543.462C727.318 545.985 728.452 548.941 730.974 550.065L749.244 558.205C751.767 559.328 754.722 558.195 755.846 555.672C756.97 553.15 755.836 550.194 753.314 549.07L735.044 540.93ZM19.334 272.943C20.1873 270.316 23.0081 268.879 25.6343 269.732L44.6543 275.912C47.2806 276.766 48.7179 279.587 47.8645 282.213C47.0112 284.839 44.1904 286.276 41.5641 285.423L22.5441 279.243C19.9179 278.39 18.4806 275.569 19.334 272.943ZM748.435 504.593C745.809 503.739 742.988 505.177 742.135 507.803C741.281 510.429 742.719 513.25 745.345 514.103L764.365 520.283C766.991 521.137 769.812 519.699 770.665 517.073C771.519 514.447 770.081 511.626 767.455 510.773L748.435 504.593ZM8.62932 312.891C9.20217 310.189 11.8564 308.464 14.5578 309.037L34.1278 313.187C36.8291 313.759 38.5546 316.414 37.9818 319.115C37.4089 321.816 34.7547 323.542 32.0533 322.969L12.4833 318.819C9.78197 318.246 8.05648 315.592 8.62932 312.891ZM757.949 467.047C755.248 466.473 752.593 468.197 752.018 470.898C751.444 473.599 753.169 476.254 755.87 476.828L775.44 480.988C778.141 481.562 780.796 479.838 781.37 477.137C781.944 474.436 780.22 471.781 777.519 471.207L757.949 467.047ZM2.16672 353.713C2.45666 350.967 4.91791 348.975 7.66407 349.265L27.5541 351.365C30.3002 351.655 32.2914 354.117 32.0014 356.863C31.7115 359.609 29.2503 361.6 26.5041 361.31L6.61409 359.21C3.86793 358.92 1.87677 356.459 2.16672 353.713ZM763.492 428.715C760.745 428.427 758.285 430.419 757.997 433.165C757.708 435.912 759.7 438.372 762.447 438.661L782.337 440.751C785.083 441.039 787.543 439.047 787.832 436.3C788.12 433.554 786.128 431.094 783.382 430.805L763.492 428.715Z" fill="#888888"/>
</mask>
<g mask="url(#mask0_17_38641)">
<circle cx="395" cy="397" r="400" fill="url(#paint0_angular_17_38641)"/>
</g>
<defs>
<radialGradient id="paint0_angular_17_38641" cx="0" cy="0" r="1" gradientUnits="userSpaceOnUse" gradientTransform="translate(395 397) rotate(90) scale(400)">
<stop stop-color="#EA5477"/>
<stop offset="0.5" stop-color="#FE9D09"/>
<stop offset="1" stop-color="#13ABAB"/>
</radialGradient>
</defs>
</svg>
