<svg width="800" height="601" viewBox="0 0 800 601" fill="none" xmlns="http://www.w3.org/2000/svg">
<path d="M800 400.012H0" stroke="#F9F9F9" stroke-miterlimit="10"/>
<path d="M797.809 358.203L2.18945 441.823" stroke="#F9F9F9" stroke-miterlimit="10"/>
<path d="M791.26 316.852L8.74023 483.182" stroke="#F9F9F9" stroke-miterlimit="10"/>
<path d="M780.42 276.402L19.5801 523.622" stroke="#F9F9F9" stroke-miterlimit="10"/>
<path d="M765.42 237.32L34.5801 562.71" stroke="#F9F9F9" stroke-miterlimit="10"/>
<path d="M746.41 200.012L53.5898 600.012" stroke="#F9F9F9" stroke-miterlimit="10"/>
<path d="M723.61 164.902L400 400.012" stroke="#F9F9F9" stroke-miterlimit="10"/>
<path d="M697.26 132.363L400 400.013" stroke="#F9F9F9" stroke-miterlimit="10"/>
<path d="M667.65 102.75L400 400.01" stroke="#F9F9F9" stroke-miterlimit="10"/>
<path d="M635.11 76.4023L400 400.012" stroke="#F9F9F9" stroke-miterlimit="10"/>
<path d="M600 53.6016L400 400.012" stroke="#F9F9F9" stroke-miterlimit="10"/>
<path d="M562.69 34.5898L400 400.01" stroke="#F9F9F9" stroke-miterlimit="10"/>
<path d="M523.61 19.5898L400 400.01" stroke="#F9F9F9" stroke-miterlimit="10"/>
<path d="M483.16 8.75L400 400.01" stroke="#F9F9F9" stroke-miterlimit="10"/>
<path d="M441.81 2.20312L400 400.013" stroke="#F9F9F9" stroke-miterlimit="10"/>
<path d="M400 0.0117188V400.012" stroke="#F9F9F9" stroke-miterlimit="10"/>
<path d="M358.189 2.20312L399.999 400.013" stroke="#F9F9F9" stroke-miterlimit="10"/>
<path d="M316.84 8.75L400 400.01" stroke="#F9F9F9" stroke-miterlimit="10"/>
<path d="M276.391 19.5898L400.001 400.01" stroke="#F9F9F9" stroke-miterlimit="10"/>
<path d="M237.311 34.5898L400.001 400.01" stroke="#F9F9F9" stroke-miterlimit="10"/>
<path d="M200 53.6016L400 400.012" stroke="#F9F9F9" stroke-miterlimit="10"/>
<path d="M164.891 76.4023L400.001 400.012" stroke="#F9F9F9" stroke-miterlimit="10"/>
<path d="M132.35 102.75L400 400.01" stroke="#F9F9F9" stroke-miterlimit="10"/>
<path d="M102.74 132.363L400 400.013" stroke="#F9F9F9" stroke-miterlimit="10"/>
<path d="M76.3906 164.902L400.001 400.012" stroke="#F9F9F9" stroke-miterlimit="10"/>
<path d="M53.5898 200.012L746.41 600.012" stroke="#F9F9F9" stroke-miterlimit="10"/>
<path d="M34.5801 237.32L765.42 562.71" stroke="#F9F9F9" stroke-miterlimit="10"/>
<path d="M19.5801 276.402L780.42 523.622" stroke="#F9F9F9" stroke-miterlimit="10"/>
<path d="M8.74023 316.852L791.26 483.182" stroke="#F9F9F9" stroke-miterlimit="10"/>
<path d="M2.18945 358.203L797.809 441.823" stroke="#F9F9F9" stroke-miterlimit="10"/>
</svg>
